<svg version="1.1" id="Layer_1" xmlns="http://www.w3.org/2000/svg" xmlns:xlink="http://www.w3.org/1999/xlink" x="0px" y="0px"
	 width="100%" viewBox="0 0 803 802" enable-background="new 0 0 803 802" xml:space="preserve">
<path fill="#17223A" opacity="1.000000" stroke="none" 
	d="
M434.000000,803.000000 
	C289.333344,803.000000 145.166672,803.000000 1.000000,803.000000 
	C1.000000,535.666687 1.000000,268.333344 1.000000,1.000000 
	C268.666656,1.000000 536.333313,1.000000 804.000000,1.000000 
	C804.000000,268.333344 804.000000,535.666687 804.000000,803.000000 
	C680.833313,803.000000 557.666687,803.000000 434.000000,803.000000 
M647.396667,499.888611 
	C647.494019,499.774658 647.591370,499.660706 647.688721,499.546692 
	C647.458069,499.424957 647.227356,499.303223 646.315308,498.830322 
	C630.001282,496.419281 621.077209,486.983734 619.030518,470.513672 
	C618.572693,473.408813 618.114929,476.303955 617.145081,479.674072 
	C617.068115,480.126068 616.991089,480.578094 616.715942,481.171570 
	C616.715942,481.171570 616.818176,481.392517 616.305908,481.911743 
	C615.202393,484.270935 614.098877,486.630096 613.000000,488.998779 
	C613.000000,488.998779 612.989929,488.997711 612.497803,489.301025 
	C612.201904,489.790283 611.906067,490.279510 611.778931,490.801239 
	C611.778931,490.801239 611.775940,490.629425 611.200012,490.867065 
	C610.957397,491.197266 610.714722,491.527466 610.159668,491.911163 
	C609.952454,492.023224 609.848206,492.197021 609.266602,492.677307 
	C608.816162,493.100586 608.365723,493.523834 607.983643,493.990906 
	C607.983643,493.990906 607.948730,493.917603 607.225769,494.074921 
	C601.841003,495.903534 596.456299,497.732117 591.715515,499.342072 
	C597.149597,501.123505 603.071777,503.064941 609.000000,505.000000 
	C609.000000,505.000000 608.994080,505.006348 609.363708,505.565460 
	C617.644043,511.720398 617.962463,521.200989 619.072632,529.808960 
	C621.164795,523.047668 623.294128,516.166443 625.291565,509.241791 
	C625.291565,509.241791 625.375305,509.352478 625.936829,508.991638 
	C629.620972,503.822388 635.413513,502.538879 641.708618,500.869904 
	C643.149353,500.588165 644.590149,500.306427 646.182251,500.244049 
	C646.507141,500.324921 646.702942,500.216248 646.889954,499.980408 
	C646.889954,499.980408 646.946411,499.857178 647.396667,499.888611 
M242.928711,259.371460 
	C242.167511,258.239838 241.406296,257.108215 240.219543,255.363358 
	C235.152161,246.886002 229.484146,238.927719 220.661407,232.723633 
	C211.619568,227.178757 205.478485,228.183701 199.067581,236.551163 
	C197.264694,238.904251 195.883347,241.625534 194.582260,244.310516 
	C186.036743,261.945526 182.160110,280.406189 184.877396,300.818329 
	C187.051483,312.675262 190.389145,316.124207 199.988113,317.184845 
	C201.334000,319.233215 202.326431,321.693542 204.113968,323.227142 
	C206.423294,325.208374 209.367981,326.449097 211.805573,328.640411 
	C203.643951,337.738190 196.086197,347.215973 192.104675,359.697845 
	C192.042496,360.119995 191.980301,360.542175 191.511612,361.446747 
	C191.273102,362.463440 191.034592,363.480164 190.384384,364.874695 
	C190.344162,365.233887 190.303940,365.593109 189.938400,366.582184 
	C189.682343,367.725159 189.426285,368.868103 188.922562,370.476349 
	C188.948639,370.650116 188.974701,370.823853 188.730438,371.517334 
	C188.657211,372.089050 188.583984,372.660797 188.109924,373.727539 
	C188.097702,374.144043 188.085495,374.560547 187.789078,375.689514 
	C187.668777,376.441315 187.548477,377.193085 187.347137,378.093048 
	C187.347137,378.093048 187.444809,378.230835 187.019562,378.840118 
	C186.692490,380.554596 186.365433,382.269043 185.693527,384.642975 
	C184.892731,387.341888 184.024399,390.022888 183.301743,392.742554 
	C177.187698,415.752167 165.569458,434.639069 142.930130,445.917053 
	C136.916840,448.110840 130.903549,450.304626 124.455391,452.657043 
	C135.070465,457.243439 145.678787,459.658844 157.837051,458.046173 
	C159.217773,457.778107 160.598511,457.510040 162.484711,457.420441 
	C162.975204,457.250336 163.465698,457.080200 164.719650,456.951874 
	C170.635925,454.123871 177.435425,452.337158 182.271332,448.235413 
	C190.500092,441.255768 197.493591,432.819824 205.675812,424.829834 
	C206.102188,423.849792 206.528564,422.869720 207.052246,421.298340 
	C207.635727,420.508820 208.219223,419.719299 209.659195,418.963898 
	C213.500717,418.123871 217.319778,417.155884 221.189499,416.476501 
	C225.965652,415.637970 230.665588,414.976898 233.969040,420.122467 
	C234.716064,421.286041 237.088867,421.405884 238.775055,422.788055 
	C238.169022,425.888000 237.687729,429.018524 236.937500,432.083160 
	C230.021835,460.333313 216.320786,484.191925 192.093079,501.230530 
	C186.667603,505.046143 181.321976,508.975311 175.270966,513.029785 
	C170.169479,517.010498 164.837051,520.732056 160.016342,525.027771 
	C150.996063,533.065857 142.889069,549.483643 142.822556,559.388489 
	C151.769943,546.923462 163.605698,539.052246 178.106400,534.322510 
	C178.416504,534.187256 178.726593,534.052063 179.735580,534.008789 
	C180.369751,533.743408 181.003937,533.478027 182.429993,533.312683 
	C195.381775,531.775452 207.517517,527.920532 218.074692,520.066284 
	C232.396179,509.411560 244.257721,496.418396 253.549942,481.179169 
	C264.177582,463.749847 270.076599,444.543579 275.075684,424.834503 
	C277.383423,425.891724 279.691162,426.948975 281.247345,428.030579 
	C279.886810,427.741882 278.526276,427.453217 277.323517,427.198029 
	C276.226471,431.418274 275.239227,435.216187 274.252014,439.013885 
	C290.176056,445.085999 316.483307,440.166840 326.339905,428.613770 
	C311.644226,432.945190 297.661163,433.540436 284.153564,427.979065 
	C292.158905,421.005768 292.942932,417.600922 288.833649,408.170929 
	C288.463898,407.322510 288.610443,406.263977 288.354919,405.348267 
	C287.365173,401.801147 286.187347,398.301636 285.330963,394.724243 
	C284.909058,392.961731 284.213867,390.285461 285.072357,389.382935 
	C287.452179,386.881042 290.598633,385.114532 293.409088,383.013275 
	C294.640839,382.092346 295.792389,381.064148 297.616486,380.291199 
	C308.548370,389.901672 321.165100,396.473511 335.665588,397.386719 
	C346.001251,398.037628 356.487183,396.302155 366.971619,396.424469 
	C368.107056,401.779175 372.438690,401.832733 376.168945,402.789551 
	C368.980499,411.788635 360.189606,418.570160 349.328461,422.666626 
	C348.165009,423.105438 347.189606,425.002533 346.814636,426.406769 
	C345.139496,432.679993 343.768494,439.033539 342.188660,445.333221 
	C335.146973,473.412720 323.817017,499.438141 306.248474,522.701416 
	C289.316895,545.121155 268.568726,563.533203 246.830460,580.973633 
	C239.167023,587.122009 231.341766,593.081299 223.404602,598.872253 
	C215.487823,604.648254 207.338257,610.105164 199.682434,615.429626 
	C326.110443,604.995483 436.560181,646.413696 536.918884,719.929932 
	C539.156616,704.061768 539.887268,687.336121 538.047791,670.476807 
	C534.684448,639.651184 520.251587,615.807800 494.013000,599.194763 
	C486.696198,594.562073 479.237335,590.146973 472.017883,585.368835 
	C459.193207,576.880920 447.771606,566.828064 441.835449,552.249329 
	C429.416168,521.748718 434.439026,493.150146 452.961792,466.678741 
	C460.209229,456.321198 470.818573,451.282898 483.598846,452.025970 
	C490.221283,452.411011 496.799591,453.619598 503.386475,454.537506 
	C516.227051,456.326965 529.021912,459.286041 541.904846,459.723724 
	C559.204895,460.311523 566.502197,451.749390 565.049805,434.507111 
	C564.347290,426.167267 565.355347,419.499481 573.926331,415.413666 
	C578.437988,413.262939 578.784241,409.514557 575.823364,405.351959 
	C574.180481,403.042236 571.995667,401.117950 569.925415,398.879669 
	C571.988037,398.087708 573.709717,397.501892 575.370483,396.776672 
	C585.608643,392.305542 587.031860,388.400116 581.984314,378.757263 
	C578.007019,371.158997 579.034607,368.546814 586.424011,363.718323 
	C591.390991,360.472809 596.416138,356.926392 600.319824,352.539764 
	C605.495544,346.723663 603.855042,340.299347 597.382568,336.011383 
	C593.087524,333.165924 588.736511,330.341553 584.775940,327.065979 
	C570.027832,314.868744 564.103699,299.283478 567.651794,280.356567 
	C569.123352,272.506409 570.592834,264.634460 572.590820,256.908844 
	C576.714355,240.963882 577.535889,225.051407 574.000732,208.984329 
	C575.361816,206.580154 576.722961,204.175980 578.729370,202.032867 
	C589.652954,210.174026 596.031677,221.283844 598.620300,234.379333 
	C601.260742,247.737534 598.005493,260.002502 589.077454,270.971130 
	C595.282288,269.476837 604.059143,262.819672 608.209656,256.754608 
	C618.721008,241.394485 618.155212,220.977753 606.665466,203.639816 
	C599.427246,192.717300 589.939148,184.171310 578.267700,178.311020 
	C573.371399,175.852570 571.167053,173.128113 572.142395,167.328979 
	C572.806946,163.377274 572.252258,158.936371 571.147705,155.023300 
	C567.502258,142.108597 557.831909,135.155746 545.765442,131.004791 
	C527.208618,124.621078 508.653778,126.306564 490.214996,131.525726 
	C486.160156,132.673462 482.798370,132.468124 478.877167,130.613831 
	C425.226715,105.243500 371.672821,104.667725 319.166351,133.356155 
	C285.757202,151.610214 261.901489,178.677826 250.635345,215.681763 
	C247.824722,224.913345 245.923828,234.438995 248.077042,244.719681 
	C248.551788,244.889847 249.026550,245.060013 249.501297,245.230179 
	C249.342331,244.822800 249.183365,244.415436 249.000839,243.236771 
	C250.350601,239.158676 251.700363,235.080597 253.678192,230.858047 
	C254.045151,229.547455 254.412109,228.236862 254.828735,226.274612 
	C255.238953,225.517487 255.649170,224.760345 256.834564,224.008713 
	C258.676422,224.652817 260.514069,225.309326 262.361359,225.937469 
	C264.152191,226.546448 265.952881,227.126312 267.839783,228.687943 
	C267.565613,233.456741 267.291443,238.225555 266.620514,243.335953 
	C266.796997,243.906204 266.973511,244.476440 267.476532,245.901184 
	C267.590149,247.722824 267.703796,249.544464 266.913635,251.215683 
	C266.066681,251.583755 264.509521,251.903900 264.480957,252.327179 
	C264.138062,257.410431 262.471436,262.702087 265.695251,266.600372 
	C264.671539,268.785126 263.847168,270.544464 262.283539,272.322266 
	C260.837036,272.076324 259.390503,271.830383 257.955261,270.730286 
	C257.325806,268.508453 256.194641,266.283203 256.209930,264.065796 
	C256.224823,261.906708 257.413147,259.755646 258.103210,257.546753 
	C256.432159,258.040619 254.669479,259.213806 253.357971,258.833038 
	C248.433685,257.403381 246.284149,259.778717 244.645462,263.583923 
	C244.183090,262.967682 243.720734,262.351440 243.171387,261.157898 
	C243.100128,260.771393 243.028870,260.384918 242.928711,259.371460 
M190.156570,175.583694 
	C196.823654,173.008881 203.490738,170.434067 210.461304,167.742050 
	C192.820511,166.582916 182.619400,157.416306 181.689590,138.407089 
	C180.735138,156.866760 172.229004,167.238235 153.405502,168.629929 
	C171.301895,169.308487 180.744553,178.002548 180.772949,195.162903 
	C183.721848,188.790131 186.662598,182.434937 190.156570,175.583694 
M557.200745,526.439880 
	C555.336548,523.065369 552.294189,521.126526 549.048157,523.355408 
	C547.313782,524.546265 545.941650,528.523010 546.652954,530.383423 
	C547.367920,532.253479 550.918335,534.170715 553.142639,534.077271 
	C556.824707,533.922546 558.263184,530.870300 557.200745,526.439880 
M152.147125,217.050995 
	C152.407394,212.874115 150.459137,210.265091 146.323776,209.925476 
	C142.909790,209.645111 139.948715,211.690933 140.259918,214.968079 
	C140.483047,217.317963 142.763290,220.309052 144.942032,221.435867 
	C148.025024,223.030411 150.512512,220.701721 152.147125,217.050995 
M579.643921,545.197693 
	C577.506042,548.483154 577.954163,551.517334 581.554810,552.965088 
	C583.087952,553.581482 586.123657,552.823914 587.179199,551.585205 
	C588.188293,550.401001 588.267395,547.339661 587.416565,545.888062 
	C585.804932,543.138428 582.991638,542.588623 579.643921,545.197693 
M219.350037,134.705032 
	C217.530975,136.093292 215.363831,137.225067 214.060760,138.993515 
	C213.524551,139.721237 214.416351,142.418106 215.430191,143.148956 
	C216.833923,144.160873 219.220627,144.903000 220.714172,144.388824 
	C222.207153,143.874863 224.307999,141.365997 224.027695,140.274887 
	C223.506653,138.246826 221.448547,136.613632 219.350037,134.705032 
M588.953674,271.533966 
	C588.734070,271.461853 588.514404,271.389771 588.294739,271.317657 
	C588.365784,271.527100 588.436829,271.736511 588.953674,271.533966 
z"/>
<path fill="#FDFAEF" opacity="1.000000" stroke="none" 
	d="
M366.906067,395.631592 
	C356.487183,396.302155 346.001251,398.037628 335.665588,397.386719 
	C321.165100,396.473511 308.548370,389.901672 297.150635,379.892700 
	C295.321899,378.054138 293.958984,376.614044 293.124573,375.065216 
	C294.003876,374.877045 294.354736,374.797668 295.055725,374.744415 
	C305.536804,377.199188 315.554291,380.697113 325.827209,381.786774 
	C338.773590,383.160004 351.928558,382.566620 365.390442,382.890900 
	C367.145386,382.525208 368.503357,382.090302 370.216217,381.670593 
	C371.043091,381.662323 371.515106,381.638885 372.313232,381.782837 
	C373.406464,381.582458 374.173615,381.214691 375.281860,380.814026 
	C376.078186,380.743256 376.533417,380.705383 377.335815,380.814636 
	C378.920715,380.436401 380.158386,379.911072 381.328369,379.297302 
	C381.260681,379.208832 381.339783,379.417053 381.746735,379.428192 
	C411.945251,373.213226 437.851227,359.377777 459.781677,338.491302 
	C491.494080,308.288574 508.641144,270.488586 515.791443,227.756805 
	C516.085388,226.000305 515.829041,224.151718 515.829041,222.346039 
	C514.599182,223.364746 514.140564,224.404800 513.655334,225.432312 
	C501.875916,250.376404 486.008667,272.096252 463.501007,288.476379 
	C457.465851,292.868530 451.101990,296.808990 444.538147,301.014374 
	C438.791229,303.701843 433.395233,306.331696 427.615204,308.972656 
	C421.815063,310.970184 416.398926,312.956635 410.636841,314.919250 
	C409.866302,315.065704 409.441772,315.235992 408.785583,315.347778 
	C408.154327,315.305786 407.957764,315.513947 407.562195,315.837097 
	C387.619843,320.429657 368.035858,323.882233 347.767456,318.549713 
	C348.652496,315.471802 349.382935,313.108887 350.005585,310.717896 
	C350.671753,308.159912 351.236328,305.575439 352.048767,302.683105 
	C353.536072,301.734070 354.756378,300.818237 356.113098,300.517120 
	C381.809662,294.813721 404.448242,282.875946 425.040253,266.778076 
	C434.124969,259.676086 442.093170,251.490280 448.461823,241.530777 
	C419.745636,261.075531 390.236725,278.413330 354.425690,279.983643 
	C353.230621,274.327698 352.433563,269.383362 351.121429,264.579742 
	C348.003021,253.163177 339.912933,246.659332 328.211884,246.930038 
	C321.797333,247.078430 315.109161,247.735825 309.088348,249.772171 
	C299.220947,253.109512 289.777313,257.712585 280.193604,261.870880 
	C275.047974,264.103516 270.493896,262.018616 269.171417,256.658691 
	C268.735168,254.890778 268.269592,253.130096 267.817444,251.366104 
	C267.703796,249.544464 267.590149,247.722824 267.441956,245.288971 
	C267.277313,244.115952 267.147278,243.555145 267.017273,242.994354 
	C267.291443,238.225555 267.565613,233.456741 267.933136,227.898270 
	C270.160461,210.075989 278.288605,195.277206 285.807892,180.174103 
	C272.800415,192.814209 263.121246,207.529388 256.059387,224.003204 
	C255.649170,224.760345 255.238953,225.517487 254.553131,226.807510 
	C253.868408,228.561111 253.459274,229.781815 253.050140,231.002518 
	C251.700363,235.080597 250.350601,239.158676 248.764862,243.726624 
	C248.349686,244.218719 248.170486,244.220978 247.991302,244.223236 
	C245.923828,234.438995 247.824722,224.913345 250.635345,215.681763 
	C261.901489,178.677826 285.757202,151.610214 319.166351,133.356155 
	C371.672821,104.667725 425.226715,105.243500 478.877167,130.613831 
	C482.798370,132.468124 486.160156,132.673462 490.214996,131.525726 
	C508.653778,126.306564 527.208618,124.621078 545.765442,131.004791 
	C557.831909,135.155746 567.502258,142.108597 571.147705,155.023300 
	C572.252258,158.936371 572.806946,163.377274 572.142395,167.328979 
	C571.167053,173.128113 573.371399,175.852570 578.267700,178.311020 
	C589.939148,184.171310 599.427246,192.717300 606.665466,203.639816 
	C618.155212,220.977753 618.721008,241.394485 608.209656,256.754608 
	C604.059143,262.819672 595.282288,269.476837 589.077454,270.971130 
	C598.005493,260.002502 601.260742,247.737534 598.620300,234.379333 
	C596.031677,221.283844 589.652954,210.174026 578.396545,201.562256 
	C574.408630,198.074356 570.753479,195.057068 567.098389,192.039780 
	C566.956055,192.275528 566.813660,192.511276 566.671326,192.747025 
	C568.881653,198.171967 571.091919,203.596909 573.302246,209.021851 
	C577.535889,225.051407 576.714355,240.963882 572.590820,256.908844 
	C570.592834,264.634460 569.123352,272.506409 567.651794,280.356567 
	C564.103699,299.283478 570.027832,314.868744 584.775940,327.065979 
	C588.736511,330.341553 593.087524,333.165924 597.382568,336.011383 
	C603.855042,340.299347 605.495544,346.723663 600.319824,352.539764 
	C596.416138,356.926392 591.390991,360.472809 586.424011,363.718323 
	C579.034607,368.546814 578.007019,371.158997 581.984314,378.757263 
	C587.031860,388.400116 585.608643,392.305542 575.370483,396.776672 
	C573.709717,397.501892 571.988037,398.087708 569.925415,398.879669 
	C571.995667,401.117950 574.180481,403.042236 575.823364,405.351959 
	C578.784241,409.514557 578.437988,413.262939 573.926331,415.413666 
	C565.355347,419.499481 564.347290,426.167267 565.049805,434.507111 
	C566.502197,451.749390 559.204895,460.311523 541.904846,459.723724 
	C529.021912,459.286041 516.227051,456.326965 503.386475,454.537506 
	C496.799591,453.619598 490.221283,452.411011 483.598846,452.025970 
	C470.818573,451.282898 460.209229,456.321198 452.961792,466.678741 
	C434.439026,493.150146 429.416168,521.748718 441.835449,552.249329 
	C447.771606,566.828064 459.193207,576.880920 472.017883,585.368835 
	C479.237335,590.146973 486.696198,594.562073 494.013000,599.194763 
	C520.251587,615.807800 534.684448,639.651184 538.047791,670.476807 
	C539.887268,687.336121 539.156616,704.061768 536.918884,719.929932 
	C436.560181,646.413696 326.110443,604.995483 199.682434,615.429626 
	C207.338257,610.105164 215.487823,604.648254 223.404602,598.872253 
	C231.341766,593.081299 239.167023,587.122009 246.830460,580.973633 
	C268.568726,563.533203 289.316895,545.121155 306.248474,522.701416 
	C323.817017,499.438141 335.146973,473.412720 342.188660,445.333221 
	C343.768494,439.033539 345.139496,432.679993 346.814636,426.406769 
	C347.189606,425.002533 348.165009,423.105438 349.328461,422.666626 
	C360.189606,418.570160 368.980499,411.788635 376.643250,402.341675 
	C380.173462,397.932434 383.229370,393.971069 386.526428,389.948517 
	C387.012360,389.533936 387.257172,389.180542 387.502014,388.827148 
	C386.999390,388.890411 386.496735,388.953705 385.596527,389.002502 
	C379.101318,391.202545 373.003693,393.417084 366.906067,395.631592 
M539.513733,138.950867 
	C528.461182,135.723541 517.342957,135.017731 506.084320,137.900284 
	C507.366974,138.796982 508.715210,138.970001 510.059814,139.167877 
	C531.410461,142.310074 551.308960,147.588013 558.359070,172.296707 
	C562.511169,167.567322 562.216553,162.398529 560.414551,157.205414 
	C557.056885,147.529083 549.167358,142.747406 539.513733,138.950867 
M388.553314,386.510742 
	C388.553314,386.510742 388.479919,386.547516 388.553314,386.510742 
z"/>
<path fill="#1A253B" opacity="1.000000" stroke="none" 
	d="
M292.596069,375.173981 
	C293.958984,376.614044 295.321899,378.054138 296.832581,379.789429 
	C295.792389,381.064148 294.640839,382.092346 293.409088,383.013275 
	C290.598633,385.114532 287.452179,386.881042 285.072357,389.382935 
	C284.213867,390.285461 284.909058,392.961731 285.330963,394.724243 
	C286.187347,398.301636 287.365173,401.801147 288.354919,405.348267 
	C288.610443,406.263977 288.463898,407.322510 288.833649,408.170929 
	C292.942932,417.600922 292.158905,421.005768 283.638763,428.309052 
	C282.748962,428.428070 282.373932,428.217133 281.998901,428.006226 
	C279.691162,426.948975 277.383423,425.891724 274.616547,424.332458 
	C274.795074,419.884521 275.432739,415.938568 276.197601,411.899048 
	C276.506531,411.494781 276.441864,411.231598 276.064880,410.679932 
	C276.073212,409.896362 276.147430,409.448792 276.421265,409.002075 
	C276.620911,409.002991 277.019867,408.987579 277.275482,408.662109 
	C277.685547,401.545746 277.897705,394.755096 277.930206,387.963623 
	C277.934906,386.979828 277.078156,385.991943 276.453247,384.696381 
	C276.301208,383.923309 276.315979,383.459778 276.517578,382.961853 
	C276.568512,382.619293 276.432587,382.311157 276.194183,381.634613 
	C276.111237,380.505005 276.130798,379.743805 276.262512,378.871155 
	C276.491272,378.421509 276.379059,378.170044 275.905457,377.660400 
	C275.627533,375.855927 275.482147,374.396271 275.498718,372.708527 
	C275.457031,371.657074 275.253357,370.833710 274.926880,369.663696 
	C274.609375,367.868286 274.414673,366.419617 274.323242,364.857300 
	C274.523315,364.412537 274.407837,364.167633 273.955139,363.692871 
	C273.796967,362.488220 273.763733,361.599640 273.778564,360.345825 
	C273.567657,359.323822 273.308655,358.667023 272.912903,357.738037 
	C272.772980,356.875977 272.769806,356.286102 272.805237,355.331543 
	C272.579559,354.315552 272.315308,353.664276 271.912720,352.804016 
	C271.792816,352.272583 271.811218,351.950104 271.851257,351.272461 
	C271.610718,350.286224 271.348572,349.655151 270.932953,348.763184 
	C270.764099,347.918884 270.748657,347.335571 270.722534,346.434937 
	C270.511078,345.753998 270.310364,345.390320 269.952881,344.760742 
	C269.781128,343.898773 269.766113,343.302795 269.790985,342.335846 
	C269.547363,341.310242 269.263824,340.655548 268.834717,339.800934 
	C268.519196,339.265472 268.556305,338.954651 268.846710,338.269623 
	C268.558075,336.927734 268.223206,335.984772 267.724121,335.000793 
	C267.559875,334.959778 267.227356,334.896118 267.264893,334.533203 
	C267.239014,333.446655 267.175629,332.723053 267.492432,332.016907 
	C274.781128,334.434021 281.462616,332.610565 288.456879,331.053650 
	C290.515594,332.419708 292.269928,333.676392 294.207642,335.214264 
	C296.912415,337.051453 299.433838,338.607483 302.171265,340.442505 
	C313.490692,346.218018 320.622101,344.821228 326.797882,334.115723 
	C331.293701,326.322479 334.009796,317.502533 337.553223,309.019836 
	C337.587128,308.899323 337.362152,308.789490 337.606628,308.553925 
	C337.908508,307.877319 337.965912,307.436310 338.222351,306.750305 
	C338.503967,306.098663 338.586487,305.691986 338.813782,305.228516 
	C338.958557,305.171692 339.233002,305.025238 339.406372,304.776855 
	C339.666931,304.134705 339.754089,303.740997 339.722656,303.128540 
	C339.584229,302.555389 339.700562,302.253510 340.138855,301.814911 
	C340.317871,301.286896 340.311157,300.948120 340.263702,300.564514 
	C340.222961,300.519714 340.256134,300.403229 340.714081,300.530182 
	C344.729767,301.438934 348.287506,302.220734 351.845245,303.002502 
	C351.236328,305.575439 350.671753,308.159912 350.005585,310.717896 
	C349.382935,313.108887 348.652496,315.471802 347.767456,318.549713 
	C368.035858,323.882233 387.619843,320.429657 407.667786,315.992371 
	C408.456085,315.951691 408.736633,315.678955 409.017212,315.406250 
	C409.441772,315.235992 409.866302,315.065704 410.656677,315.311951 
	C411.969788,317.656097 420.419556,321.364655 422.241852,320.610077 
	C422.678131,320.429474 423.199738,320.099213 423.375916,319.701965 
	C424.955963,316.139130 426.467560,312.545929 427.999268,308.961609 
	C433.395233,306.331696 438.791229,303.701843 444.895081,301.084290 
	C450.633148,303.834808 455.663361,306.572937 460.500244,309.602234 
	C447.900116,318.108582 435.867767,326.971039 423.011230,334.408875 
	C393.094177,351.716736 360.635345,359.127899 325.756470,356.981018 
	C323.826385,356.641449 322.220856,356.448517 320.615356,356.255585 
	C320.528076,356.528351 320.440826,356.801147 320.353546,357.073914 
	C322.244385,357.704193 324.135193,358.334473 326.374847,359.075073 
	C342.926147,365.785950 359.827301,367.329651 377.082947,366.613953 
	C378.487061,371.193146 379.913422,375.305084 381.339783,379.417053 
	C381.339783,379.417053 381.260681,379.208832 380.957947,379.197052 
	C379.433014,379.679382 378.210815,380.173462 376.988617,380.667542 
	C376.533417,380.705383 376.078186,380.743256 375.079773,380.614563 
	C373.686737,380.837158 372.836914,381.226318 371.987091,381.615448 
	C371.515106,381.638885 371.043091,381.662323 369.941620,381.486542 
	C367.872589,381.798767 366.433075,382.310242 364.993530,382.821686 
	C351.928558,382.566620 338.773590,383.160004 325.827209,381.786774 
	C315.554291,380.697113 305.536804,377.199188 294.799561,374.486176 
	C293.215149,374.201782 292.237091,374.201782 291.259033,374.201782 
	C291.262695,374.381348 291.266388,374.560913 291.270050,374.740509 
	C291.712067,374.884979 292.154053,375.029480 292.596069,375.173981 
z"/>
<path fill="#202B41" opacity="1.000000" stroke="none" 
	d="
M288.152527,330.944275 
	C281.462616,332.610565 274.781128,334.434021 267.299042,331.678375 
	C265.495880,326.153137 264.363464,320.957153 262.952484,315.837952 
	C262.679871,314.848877 261.382477,314.057648 260.394165,313.434845 
	C260.231506,313.332306 258.867310,314.475677 258.653961,315.215118 
	C256.079865,324.136536 253.617859,333.090240 250.887360,342.328491 
	C245.103424,357.716064 243.249863,373.461975 242.075302,389.378906 
	C241.271027,400.278046 239.855560,411.132019 238.713318,422.006195 
	C237.088867,421.405884 234.716064,421.286041 233.969040,420.122467 
	C230.665588,414.976898 225.965652,415.637970 221.189499,416.476501 
	C217.319778,417.155884 213.500717,418.123871 209.296265,418.590271 
	C221.236816,396.067108 225.170425,371.571442 229.055084,346.652527 
	C232.835037,334.134216 236.468933,321.984711 240.040680,309.816925 
	C240.393448,308.615204 242.557007,306.530914 238.712494,306.349213 
	C236.999420,305.995544 235.506058,305.890076 234.012695,305.784607 
	C233.994308,307.130096 233.975922,308.475555 233.725830,310.069946 
	C229.897369,313.163055 226.300598,316.007263 222.398483,318.972168 
	C218.741791,322.064789 215.390427,325.036743 212.039078,328.008698 
	C209.367981,326.449097 206.423294,325.208374 204.113968,323.227142 
	C202.326431,321.693542 201.334000,319.233215 200.379883,316.670288 
	C205.108719,314.908691 209.445755,313.661713 213.975769,312.714111 
	C215.113235,312.354279 216.057724,311.695068 217.247375,310.796509 
	C222.523300,307.413300 227.447891,304.079956 232.616974,301.182800 
	C237.107834,298.665802 238.132706,295.158417 236.874023,290.125061 
	C235.512207,290.125061 234.237946,290.125061 232.520630,290.011597 
	C224.256516,289.898102 216.435486,289.898102 208.614456,289.898102 
	C208.558640,289.600769 208.502823,289.303406 208.447021,289.006073 
	C212.345779,287.431244 216.244553,285.856384 220.570694,284.260681 
	C226.043701,283.711182 231.089340,283.182556 236.134979,282.653900 
	C236.267929,282.118866 236.400879,281.583801 236.533844,281.048767 
	C230.690063,278.695312 224.846283,276.341888 218.632339,273.929443 
	C217.067520,273.712128 215.872864,273.553772 214.678207,273.395416 
	C224.112564,269.439697 232.683533,271.343292 240.675461,276.836304 
	C247.358292,270.109222 247.358292,270.109222 245.078094,263.982941 
	C246.284149,259.778717 248.433685,257.403381 253.357971,258.833038 
	C254.669479,259.213806 256.432159,258.040619 258.103210,257.546753 
	C257.413147,259.755646 256.224823,261.906708 256.209930,264.065796 
	C256.194641,266.283203 257.325806,268.508453 257.618469,271.268555 
	C254.829178,272.785889 252.376709,273.764954 249.615646,274.917542 
	C244.261765,280.491852 242.371384,287.040955 242.250275,294.595306 
	C242.561584,301.086670 246.488510,305.504486 253.011246,307.122528 
	C259.126129,308.639404 263.969543,306.994812 266.962585,301.351929 
	C269.171692,297.187042 270.335876,292.467896 272.115295,287.596130 
	C272.293518,285.777924 272.322021,284.359222 272.441895,282.639771 
	C272.820038,275.717743 267.624359,274.292297 263.022797,272.303802 
	C263.847168,270.544464 264.671539,268.785126 265.695251,266.600372 
	C262.471436,262.702087 264.138062,257.410431 264.480957,252.327179 
	C264.509521,251.903900 266.066681,251.583755 267.365540,251.290894 
	C268.269592,253.130096 268.735168,254.890778 269.171417,256.658691 
	C270.493896,262.018616 275.047974,264.103516 280.193604,261.870880 
	C289.777313,257.712585 299.220947,253.109512 309.088348,249.772171 
	C315.109161,247.735825 321.797333,247.078430 328.211884,246.930038 
	C339.912933,246.659332 348.003021,253.163177 351.121429,264.579742 
	C352.433563,269.383362 353.230621,274.327698 354.425690,279.983643 
	C390.236725,278.413330 419.745636,261.075531 448.461823,241.530777 
	C442.093170,251.490280 434.124969,259.676086 425.040253,266.778076 
	C404.448242,282.875946 381.809662,294.813721 356.113098,300.517120 
	C354.756378,300.818237 353.536072,301.734070 352.048767,302.683105 
	C348.287506,302.220734 344.729767,301.438934 340.695496,300.216675 
	C340.441193,299.195709 340.663422,298.615204 341.090027,297.884277 
	C341.228699,297.161591 341.162933,296.589294 341.062561,295.592133 
	C340.915253,286.777649 341.631287,278.270233 340.460510,270.030975 
	C339.250275,261.513947 335.617493,259.589142 326.549072,260.068176 
	C324.052826,260.016510 321.995758,260.028046 319.530609,259.991150 
	C307.162262,261.620972 296.265076,265.992004 286.218628,272.852234 
	C286.076691,272.827271 285.936493,273.079071 285.701813,273.111694 
	C285.149567,273.267334 284.944580,273.492767 284.570557,273.858337 
	C283.839630,274.227386 283.390350,274.558624 282.591156,274.959656 
	C275.631989,277.536774 277.300690,282.855164 277.713623,288.268188 
	C281.324646,287.444611 284.669067,286.681854 288.476868,285.974335 
	C302.627472,285.718872 307.256714,286.514008 311.631775,290.047058 
	C299.936829,289.196259 289.048492,291.603577 277.426178,296.199188 
	C288.111084,298.809113 296.581268,302.702026 301.985352,311.186676 
	C293.167603,308.982239 284.689392,306.240631 276.135254,303.760742 
	C274.950775,303.417358 272.735016,303.943146 272.165955,304.822906 
	C271.397552,306.010834 271.062744,308.385956 271.760620,309.459015 
	C274.826874,314.173676 278.332001,318.602844 281.801208,323.453979 
	C284.000458,326.163055 286.076477,328.553680 288.152527,330.944275 
M225.059540,390.444702 
	C221.220474,403.023834 230.689804,409.249481 237.924652,418.182678 
	C238.317978,412.857758 239.901978,408.474091 238.643982,405.173676 
	C235.178268,396.081238 230.522629,387.442352 226.290924,378.525513 
	C225.908569,382.310181 225.541565,385.942993 225.059540,390.444702 
z"/>
<path fill="#F9CD68" opacity="1.000000" stroke="none" 
	d="
M238.744186,422.397125 
	C239.855560,411.132019 241.271027,400.278046 242.075302,389.378906 
	C243.249863,373.461975 245.103424,357.716064 251.104172,342.581665 
	C253.385178,345.136078 255.210129,347.730255 257.362701,350.790192 
	C261.172028,344.545471 256.694550,335.055389 267.227356,334.896118 
	C267.227356,334.896118 267.559875,334.959778 267.685120,335.384583 
	C268.140411,336.762451 268.470428,337.715515 268.800476,338.668549 
	C268.556305,338.954651 268.519196,339.265472 268.805115,340.166504 
	C269.197754,341.390259 269.474396,342.048523 269.751068,342.706787 
	C269.766113,343.302795 269.781128,343.898773 269.928101,345.087219 
	C270.284424,346.037201 270.508820,346.394714 270.733215,346.752228 
	C270.748657,347.335571 270.764099,347.918884 270.897583,349.113983 
	C271.287018,350.359711 271.558319,350.993683 271.829651,351.627655 
	C271.811218,351.950104 271.792816,352.272583 271.875183,353.164673 
	C272.239471,354.388275 272.503052,355.042267 272.766602,355.696228 
	C272.769806,356.286102 272.772980,356.875977 272.869995,358.100067 
	C273.219391,359.393219 273.474976,360.052124 273.730530,360.711060 
	C273.763733,361.599640 273.796967,362.488220 273.913696,363.944458 
	C274.071503,364.665039 274.145721,364.817993 274.219971,364.970917 
	C274.414673,366.419617 274.609375,367.868286 274.869537,370.032837 
	C275.068909,371.477997 275.202820,372.207306 275.336731,372.936646 
	C275.482147,374.396271 275.627533,375.855927 275.858948,377.913330 
	C276.013367,378.668274 276.081818,378.825439 276.150330,378.982635 
	C276.130798,379.743805 276.111237,380.505005 276.127838,381.885498 
	C276.219543,382.668610 276.275146,382.832428 276.330750,382.996277 
	C276.315979,383.459778 276.301208,383.923309 276.372833,385.101074 
	C276.487549,392.960785 276.515839,400.106201 276.356140,407.505463 
	C276.186005,408.173248 276.203827,408.587219 276.221649,409.001190 
	C276.147430,409.448792 276.073212,409.896362 275.981384,410.919861 
	C275.999329,411.661377 276.034882,411.827026 276.070404,411.992645 
	C275.432739,415.938568 274.795074,419.884521 274.178589,424.270691 
	C270.076599,444.543579 264.177582,463.749847 253.549942,481.179169 
	C244.257721,496.418396 232.396179,509.411560 218.074692,520.066284 
	C207.517517,527.920532 195.381775,531.775452 181.678406,533.225830 
	C180.296783,533.398193 179.666733,533.657471 179.036682,533.916809 
	C178.726593,534.052063 178.416504,534.187256 177.435974,534.138306 
	C176.308548,530.759155 175.571579,527.573425 175.466843,524.367004 
	C175.341782,520.537964 175.757889,516.691223 175.939575,512.852173 
	C181.321976,508.975311 186.667603,505.046143 192.093079,501.230530 
	C216.320786,484.191925 230.021835,460.333313 236.937500,432.083160 
	C237.687729,429.018524 238.169022,425.888000 238.744186,422.397125 
z"/>
<path fill="#F9CC66" opacity="1.000000" stroke="none" 
	d="
M228.891586,347.016205 
	C225.170425,371.571442 221.236816,396.067108 208.868011,418.573181 
	C208.219223,419.719299 207.635727,420.508820 206.734253,421.760315 
	C205.946213,423.146820 205.476181,424.071289 205.006165,424.995789 
	C197.493591,432.819824 190.500092,441.255768 182.271332,448.235413 
	C177.435425,452.337158 170.635925,454.123871 164.196701,456.759003 
	C163.108917,456.791412 162.544083,457.016693 161.979233,457.242004 
	C160.598511,457.510040 159.217773,457.778107 157.420746,457.556396 
	C155.985306,454.887817 155.526459,451.938141 153.823410,450.700317 
	C150.832245,448.526184 147.079468,447.399902 143.645660,445.834778 
	C165.569458,434.639069 177.187698,415.752167 183.301743,392.742554 
	C184.024399,390.022888 184.892731,387.341888 186.119690,384.039917 
	C186.845520,381.701538 187.145172,379.966187 187.444824,378.230835 
	C187.444809,378.230835 187.347137,378.093048 187.860916,378.035278 
	C197.648575,377.643127 206.146652,375.417999 211.983978,367.501373 
	C214.242462,364.438416 216.618042,361.223602 217.849762,357.697113 
	C219.733429,352.304047 220.671799,346.580811 222.344879,341.076904 
	C224.749405,343.109467 226.820496,345.062836 228.891586,347.016205 
z"/>
<path fill="#FACE65" opacity="1.000000" stroke="none" 
	d="
M220.143326,284.281555 
	C216.244553,285.856384 212.345779,287.431244 208.447021,289.006073 
	C208.502823,289.303406 208.558640,289.600769 208.614456,289.898102 
	C216.435486,289.898102 224.256516,289.898102 232.246262,290.228760 
	C231.499191,290.924225 230.079208,291.033264 229.744675,291.692871 
	C225.900864,299.271179 218.779694,302.376251 211.499924,305.191589 
	C203.689590,308.212158 195.350983,306.176422 190.543442,299.661621 
	C188.000671,296.215881 186.659088,297.047119 184.984085,300.010437 
	C182.160110,280.406189 186.036743,261.945526 194.582260,244.310516 
	C195.883347,241.625534 197.264694,238.904251 199.067581,236.551163 
	C205.478485,228.183701 211.619568,227.178757 220.968231,233.314636 
	C226.869934,241.603699 232.424133,249.332108 238.115128,256.958405 
	C238.770630,257.836853 240.188385,258.146454 241.208496,258.762909 
	C241.164246,258.806030 241.068741,258.727631 241.188019,258.996826 
	C241.627731,259.479614 241.948166,259.693207 242.185394,259.891724 
	C242.102173,259.876617 242.150192,259.714417 242.182648,260.025879 
	C242.562851,260.803284 242.910614,261.269257 243.258377,261.735199 
	C243.720734,262.351440 244.183090,262.967682 244.861786,263.783447 
	C247.358292,270.109222 247.358292,270.109222 240.675461,276.836304 
	C232.683533,271.343292 224.112564,269.439697 214.678207,273.395416 
	C215.872864,273.553772 217.067520,273.712128 218.632904,274.344055 
	C219.479904,277.960663 216.455627,281.525269 220.143326,284.281555 
z"/>
<path fill="#FAD06B" opacity="1.000000" stroke="none" 
	d="
M222.011444,340.997711 
	C220.671799,346.580811 219.733429,352.304047 217.849762,357.697113 
	C216.618042,361.223602 214.242462,364.438416 211.983978,367.501373 
	C206.146652,375.417999 197.648575,377.643127 187.901428,377.961182 
	C187.548477,377.193085 187.668777,376.441315 188.119965,375.080872 
	C188.470810,374.058960 188.490784,373.645752 188.510757,373.232513 
	C188.583984,372.660797 188.657211,372.089050 189.007568,371.177460 
	C189.507751,370.532776 189.469604,370.257263 189.170227,370.011078 
	C189.426285,368.868103 189.682343,367.725159 190.277435,366.064026 
	C190.676331,365.196198 190.736221,364.846527 190.796097,364.496857 
	C191.034592,363.480164 191.273102,362.463440 191.939438,360.970428 
	C192.430771,360.072479 192.494278,359.650818 192.557770,359.229187 
	C196.086197,347.215973 203.643951,337.738190 211.922333,328.324554 
	C215.390427,325.036743 218.741791,322.064789 222.730286,319.145844 
	C226.946503,321.039825 227.552490,323.494324 225.991943,327.324646 
	C224.210510,331.697144 223.300293,336.424530 222.011444,340.997711 
z"/>
<path fill="#F3CD69" opacity="1.000000" stroke="none" 
	d="
M189.879974,175.831726 
	C186.662598,182.434937 183.721848,188.790131 180.772949,195.162903 
	C180.744553,178.002548 171.301895,169.308487 153.405502,168.629929 
	C172.229004,167.238235 180.735138,156.866760 181.689590,138.407089 
	C182.619400,157.416306 192.820511,166.582916 210.461304,167.742050 
	C203.490738,170.434067 196.823654,173.008881 189.879974,175.831726 
z"/>
<path fill="#F7D16D" opacity="1.000000" stroke="none" 
	d="
M617.657104,479.199066 
	C618.114929,476.303955 618.572693,473.408813 619.030518,470.513672 
	C621.077209,486.983734 630.001282,496.419281 646.637695,499.174377 
	C646.960022,499.518402 646.946411,499.857178 646.946411,499.857178 
	C646.946411,499.857178 646.889954,499.980408 646.643555,499.963501 
	C646.397156,499.946594 646.030884,500.024719 646.030884,500.024719 
	C644.590149,500.306427 643.149353,500.588165 641.054932,500.642639 
	C632.544189,500.339172 626.750916,503.784882 625.375305,509.352478 
	C625.375305,509.352478 625.291565,509.241791 624.998779,509.332764 
	C623.102295,512.094543 621.498474,514.765320 619.469971,518.143494 
	C618.297729,515.322571 616.939392,513.175232 616.544006,510.863220 
	C615.776550,506.375580 613.195251,504.785645 608.994080,505.006348 
	C608.994080,505.006348 609.000000,505.000000 608.934326,504.596466 
	C608.561951,500.767822 608.255371,497.342712 607.948730,493.917603 
	C607.948730,493.917603 607.983643,493.990906 608.280640,493.919678 
	C609.000732,493.376495 609.423889,492.904510 609.846985,492.432556 
	C609.848206,492.197021 609.952454,492.023224 610.612305,491.775269 
	C611.301880,491.302704 611.538879,490.966064 611.775940,490.629425 
	C611.775940,490.629425 611.778931,490.801239 611.986816,490.686829 
	C612.459778,490.047516 612.724854,489.522614 612.989990,488.997742 
	C612.989929,488.997711 613.000000,488.998779 613.343262,488.913818 
	C614.730347,486.350037 615.774231,483.871277 616.818176,481.392517 
	C616.818176,481.392517 616.715942,481.171570 617.045410,480.847534 
	C617.468994,480.082001 617.563049,479.640533 617.657104,479.199066 
z"/>
<path fill="#F0C360" opacity="1.000000" stroke="none" 
	d="
M175.605270,512.940979 
	C175.757889,516.691223 175.341782,520.537964 175.466843,524.367004 
	C175.571579,527.573425 176.308548,530.759155 177.183182,534.090820 
	C163.605698,539.052246 151.769943,546.923462 142.822556,559.388489 
	C142.889069,549.483643 150.996063,533.065857 160.016342,525.027771 
	C164.837051,520.732056 170.169479,517.010498 175.605270,512.940979 
z"/>
<path fill="#F1C35E" opacity="1.000000" stroke="none" 
	d="
M184.930740,300.414368 
	C186.659088,297.047119 188.000671,296.215881 190.543442,299.661621 
	C195.350983,306.176422 203.689590,308.212158 211.499924,305.191589 
	C218.779694,302.376251 225.900864,299.271179 229.744675,291.692871 
	C230.079208,291.033264 231.499191,290.924225 232.689331,290.342255 
	C234.237946,290.125061 235.512207,290.125061 236.874023,290.125061 
	C238.132706,295.158417 237.107834,298.665802 232.616974,301.182800 
	C227.447891,304.079956 222.523300,307.413300 216.950012,310.811218 
	C215.532593,311.515076 214.657684,311.964874 213.782776,312.414703 
	C209.445755,313.661713 205.108719,314.908691 200.381012,316.295471 
	C190.389145,316.124207 187.051483,312.675262 184.930740,300.414368 
z"/>
<path fill="#F2F0E7" opacity="1.000000" stroke="none" 
	d="
M281.623108,428.018372 
	C282.373932,428.217133 282.748962,428.428070 283.451447,428.629333 
	C297.661163,433.540436 311.644226,432.945190 326.339905,428.613770 
	C316.483307,440.166840 290.176056,445.085999 274.252014,439.013885 
	C275.239227,435.216187 276.226471,431.418274 277.323517,427.198029 
	C278.526276,427.453217 279.886810,427.741882 281.623108,428.018372 
z"/>
<path fill="#202B41" opacity="1.000000" stroke="none" 
	d="
M256.446960,224.005951 
	C263.121246,207.529388 272.800415,192.814209 285.807892,180.174103 
	C278.288605,195.277206 270.160461,210.075989 267.887878,227.413757 
	C265.952881,227.126312 264.152191,226.546448 262.361359,225.937469 
	C260.514069,225.309326 258.676422,224.652817 256.446960,224.005951 
z"/>
<path fill="#F1C35E" opacity="1.000000" stroke="none" 
	d="
M143.287903,445.875916 
	C147.079468,447.399902 150.832245,448.526184 153.823410,450.700317 
	C155.526459,451.938141 155.985306,454.887817 157.000824,457.474915 
	C145.678787,459.658844 135.070465,457.243439 124.455391,452.657043 
	C130.903549,450.304626 136.916840,448.110840 143.287903,445.875916 
z"/>
<path fill="#273249" opacity="1.000000" stroke="none" 
	d="
M366.938843,396.028015 
	C373.003693,393.417084 379.101318,391.202545 385.664368,389.252136 
	C386.181671,389.680725 386.233490,389.845215 386.285278,390.009705 
	C383.229370,393.971069 380.173462,397.932434 376.845306,402.053619 
	C372.438690,401.832733 368.107056,401.779175 366.938843,396.028015 
z"/>
<path fill="#F7EEC9" opacity="1.000000" stroke="none" 
	d="
M249.924255,274.744019 
	C252.376709,273.764954 254.829178,272.785889 257.612823,271.695618 
	C259.390503,271.830383 260.837036,272.076324 262.653168,272.313049 
	C267.624359,274.292297 272.820038,275.717743 272.088501,282.514343 
	C264.403839,280.041168 257.164062,277.392609 249.924255,274.744019 
z"/>
<path fill="#EBBE5E" opacity="1.000000" stroke="none" 
	d="
M557.328369,526.785522 
	C558.263184,530.870300 556.824707,533.922546 553.142639,534.077271 
	C550.918335,534.170715 547.367920,532.253479 546.652954,530.383423 
	C545.941650,528.523010 547.313782,524.546265 549.048157,523.355408 
	C552.294189,521.126526 555.336548,523.065369 557.328369,526.785522 
z"/>
<path fill="#F0C360" opacity="1.000000" stroke="none" 
	d="
M152.069763,217.394562 
	C150.512512,220.701721 148.025024,223.030411 144.942032,221.435867 
	C142.763290,220.309052 140.483047,217.317963 140.259918,214.968079 
	C139.948715,211.690933 142.909790,209.645111 146.323776,209.925476 
	C150.459137,210.265091 152.407394,212.874115 152.069763,217.394562 
z"/>
<path fill="#E6CA7A" opacity="1.000000" stroke="none" 
	d="
M607.587280,493.996277 
	C608.255371,497.342712 608.561951,500.767822 608.931274,504.599670 
	C603.071777,503.064941 597.149597,501.123505 591.715515,499.342072 
	C596.456299,497.732117 601.841003,495.903534 607.587280,493.996277 
z"/>
<path fill="#F7EEC9" opacity="1.000000" stroke="none" 
	d="
M579.895874,544.943237 
	C582.991638,542.588623 585.804932,543.138428 587.416565,545.888062 
	C588.267395,547.339661 588.188293,550.401001 587.179199,551.585205 
	C586.123657,552.823914 583.087952,553.581482 581.554810,552.965088 
	C577.954163,551.517334 577.506042,548.483154 579.895874,544.943237 
z"/>
<path fill="#273249" opacity="1.000000" stroke="none" 
	d="
M573.651489,209.003082 
	C571.091919,203.596909 568.881653,198.171967 566.671326,192.747025 
	C566.813660,192.511276 566.956055,192.275528 567.098389,192.039780 
	C570.753479,195.057068 574.408630,198.074356 578.073914,201.431717 
	C576.722961,204.175980 575.361816,206.580154 573.651489,209.003082 
z"/>
<path fill="#E6CA7A" opacity="1.000000" stroke="none" 
	d="
M219.690186,134.760544 
	C221.448547,136.613632 223.506653,138.246826 224.027695,140.274887 
	C224.307999,141.365997 222.207153,143.874863 220.714172,144.388824 
	C219.220627,144.903000 216.833923,144.160873 215.430191,143.148956 
	C214.416351,142.418106 213.524551,139.721237 214.060760,138.993515 
	C215.363831,137.225067 217.530975,136.093292 219.690186,134.760544 
z"/>
<path fill="#F1E2B7" opacity="1.000000" stroke="none" 
	d="
M241.252731,258.719788 
	C240.188385,258.146454 238.770630,257.836853 238.115128,256.958405 
	C232.424133,249.332108 226.869934,241.603699 221.206329,233.595032 
	C229.484146,238.927719 235.152161,246.886002 240.359528,255.959686 
	C240.750595,257.277252 241.001663,257.998535 241.252731,258.719788 
z"/>
<path fill="#E6CA7A" opacity="1.000000" stroke="none" 
	d="
M609.178894,505.285889 
	C613.195251,504.785645 615.776550,506.375580 616.544006,510.863220 
	C616.939392,513.175232 618.297729,515.322571 619.469971,518.143494 
	C621.498474,514.765320 623.102295,512.094543 625.064697,509.354492 
	C623.294128,516.166443 621.164795,523.047668 619.072632,529.808960 
	C617.962463,521.200989 617.644043,511.720398 609.178894,505.285889 
M619.542419,521.507324 
	C619.542419,521.507324 619.486328,521.533813 619.542419,521.507324 
z"/>
<path fill="#E6CA7A" opacity="1.000000" stroke="none" 
	d="
M625.656067,509.172058 
	C626.750916,503.784882 632.544189,500.339172 640.688599,500.623352 
	C635.413513,502.538879 629.620972,503.822388 625.656067,509.172058 
z"/>
<path fill="#E6CA7A" opacity="1.000000" stroke="none" 
	d="
M616.562012,481.652130 
	C615.774231,483.871277 614.730347,486.350037 613.340881,488.909058 
	C614.098877,486.630096 615.202393,484.270935 616.562012,481.652130 
z"/>
<path fill="#202B41" opacity="1.000000" stroke="none" 
	d="
M253.364166,230.930283 
	C253.459274,229.781815 253.868408,228.561111 254.528305,227.133331 
	C254.412109,228.236862 254.045151,229.547455 253.364166,230.930283 
z"/>
<path fill="#EBBE5E" opacity="1.000000" stroke="none" 
	d="
M187.232193,378.535461 
	C187.145172,379.966187 186.845520,381.701538 186.292114,383.710205 
	C186.365433,382.269043 186.692490,380.554596 187.232193,378.535461 
z"/>
<path fill="#202B41" opacity="1.000000" stroke="none" 
	d="
M241.208496,258.762909 
	C241.001663,257.998535 240.750595,257.277252 240.572296,256.266296 
	C241.406296,257.108215 242.167511,258.239838 242.739014,259.621124 
	C242.549301,259.870789 242.150192,259.714417 242.150192,259.714417 
	C242.150192,259.714417 242.102173,259.876617 242.098206,259.599487 
	C241.752411,259.124115 241.410583,258.925873 241.068741,258.727631 
	C241.068741,258.727631 241.164246,258.806030 241.208496,258.762909 
z"/>
<path fill="#202B41" opacity="1.000000" stroke="none" 
	d="
M205.340988,424.912811 
	C205.476181,424.071289 205.946213,423.146820 206.685593,422.056000 
	C206.528564,422.869720 206.102188,423.849792 205.340988,424.912811 
z"/>
<path fill="#202B41" opacity="1.000000" stroke="none" 
	d="
M248.034180,244.471466 
	C248.170486,244.220978 248.349686,244.218719 248.776642,244.112274 
	C249.183365,244.415436 249.342331,244.822800 249.501297,245.230179 
	C249.026550,245.060013 248.551788,244.889847 248.034180,244.471466 
z"/>
<path fill="#F1C35E" opacity="1.000000" stroke="none" 
	d="
M162.231964,457.331238 
	C162.544083,457.016693 163.108917,456.791412 163.814972,456.738098 
	C163.465698,457.080200 162.975204,457.250336 162.231964,457.331238 
z"/>
<path fill="#202B41" opacity="1.000000" stroke="none" 
	d="
M266.818909,243.165161 
	C267.147278,243.555145 267.277313,244.115952 267.278687,244.861725 
	C266.973511,244.476440 266.796997,243.906204 266.818909,243.165161 
z"/>
<path fill="#E6CA7A" opacity="1.000000" stroke="none" 
	d="
M609.556763,492.554932 
	C609.423889,492.904510 609.000732,493.376495 608.246460,493.897766 
	C608.365723,493.523834 608.816162,493.100586 609.556763,492.554932 
z"/>
<path fill="#E6CA7A" opacity="1.000000" stroke="none" 
	d="
M612.743896,489.149384 
	C612.724854,489.522614 612.459778,490.047516 611.902466,490.670593 
	C611.906067,490.279510 612.201904,489.790283 612.743896,489.149384 
z"/>
<path fill="#F1E2B7" opacity="1.000000" stroke="none" 
	d="
M242.182648,260.025879 
	C242.150192,259.714417 242.549301,259.870789 242.753448,259.934601 
	C243.028870,260.384918 243.100128,260.771393 243.214874,261.446533 
	C242.910614,261.269257 242.562851,260.803284 242.182648,260.025879 
z"/>
<path fill="#F0C360" opacity="1.000000" stroke="none" 
	d="
M179.386139,533.962769 
	C179.666733,533.657471 180.296783,533.398193 181.282471,533.175781 
	C181.003937,533.478027 180.369751,533.743408 179.386139,533.962769 
z"/>
<path fill="#EBBE5E" opacity="1.000000" stroke="none" 
	d="
M192.331238,359.463501 
	C192.494278,359.650818 192.430771,360.072479 192.142685,360.729218 
	C191.980301,360.542175 192.042496,360.119995 192.331238,359.463501 
z"/>
<path fill="#E6CA7A" opacity="1.000000" stroke="none" 
	d="
M646.106567,500.134399 
	C646.030884,500.024719 646.397156,499.946594 646.583374,499.932312 
	C646.702942,500.216248 646.507141,500.324921 646.106567,500.134399 
z"/>
<path fill="#E6CA7A" opacity="1.000000" stroke="none" 
	d="
M647.171509,499.872894 
	C646.946411,499.857178 646.960022,499.518402 646.978333,499.349945 
	C647.227356,499.303223 647.458069,499.424957 647.688721,499.546692 
	C647.591370,499.660706 647.494019,499.774658 647.171509,499.872894 
z"/>
<path fill="#E6CA7A" opacity="1.000000" stroke="none" 
	d="
M611.487976,490.748230 
	C611.538879,490.966064 611.301880,491.302704 610.768494,491.748505 
	C610.714722,491.527466 610.957397,491.197266 611.487976,490.748230 
z"/>
<path fill="#E6CA7A" opacity="1.000000" stroke="none" 
	d="
M617.401123,479.436584 
	C617.563049,479.640533 617.468994,480.082001 617.144531,480.776794 
	C616.991089,480.578094 617.068115,480.126068 617.401123,479.436584 
z"/>
<path fill="#EBBE5E" opacity="1.000000" stroke="none" 
	d="
M190.590240,364.685791 
	C190.736221,364.846527 190.676331,365.196198 190.440094,365.749084 
	C190.303940,365.593109 190.344162,365.233887 190.590240,364.685791 
z"/>
<path fill="#EBBE5E" opacity="1.000000" stroke="none" 
	d="
M189.046387,370.243713 
	C189.469604,370.257263 189.507751,370.532776 189.142731,370.917572 
	C188.974701,370.823853 188.948639,370.650116 189.046387,370.243713 
z"/>
<path fill="#FDFAEF" opacity="1.000000" stroke="none" 
	d="
M588.730713,271.739929 
	C588.436829,271.736511 588.365784,271.527100 588.294800,271.317657 
	C588.514404,271.389771 588.734070,271.461853 588.730713,271.739929 
z"/>
<path fill="#EBBE5E" opacity="1.000000" stroke="none" 
	d="
M188.310333,373.480042 
	C188.490784,373.645752 188.470810,374.058960 188.262054,374.724609 
	C188.085495,374.560547 188.097702,374.144043 188.310333,373.480042 
z"/>
<path fill="#202B42" opacity="1.000000" stroke="none" 
	d="
M460.693604,309.311096 
	C455.663361,306.572937 450.633148,303.834808 445.245972,301.026733 
	C451.101990,296.808990 457.465851,292.868530 463.501007,288.476379 
	C486.008667,272.096252 501.875916,250.376404 513.655334,225.432312 
	C514.140564,224.404800 514.599182,223.364746 515.829041,222.346039 
	C515.829041,224.151718 516.085388,226.000305 515.791443,227.756805 
	C508.641144,270.488586 491.494080,308.288574 459.781677,338.491302 
	C437.851227,359.377777 411.945251,373.213226 381.746735,379.428192 
	C379.913422,375.305084 378.487061,371.193146 377.411041,366.494415 
	C400.131348,363.103546 420.093109,354.413666 437.925781,340.830444 
	C455.419952,327.505035 470.033813,311.573303 481.305420,292.764008 
	C481.000549,292.483917 480.695679,292.203827 480.390808,291.923706 
	C473.825073,297.719513 467.259338,303.515289 460.693604,309.311096 
z"/>
<path fill="#273249" opacity="1.000000" stroke="none" 
	d="
M539.889526,139.064087 
	C549.167358,142.747406 557.056885,147.529083 560.414551,157.205414 
	C562.216553,162.398529 562.511169,167.567322 558.359070,172.296707 
	C551.308960,147.588013 531.410461,142.310074 510.059814,139.167877 
	C508.715210,138.970001 507.366974,138.796982 506.084320,137.900284 
	C517.342957,135.017731 528.461182,135.723541 539.889526,139.064087 
z"/>
<path fill="#202B42" opacity="1.000000" stroke="none" 
	d="
M427.615234,308.972656 
	C426.467560,312.545929 424.955963,316.139130 423.375916,319.701965 
	C423.199738,320.099213 422.678131,320.429474 422.241852,320.610077 
	C420.419556,321.364655 411.969788,317.656097 411.002625,315.335815 
	C416.398926,312.956635 421.815063,310.970184 427.615234,308.972656 
z"/>
<path fill="#202B42" opacity="1.000000" stroke="none" 
	d="
M365.390442,382.890900 
	C366.433075,382.310242 367.872589,381.798767 369.586731,381.471375 
	C368.503357,382.090302 367.145386,382.525208 365.390442,382.890900 
z"/>
<path fill="#202B42" opacity="1.000000" stroke="none" 
	d="
M377.335815,380.814636 
	C378.210815,380.173462 379.433014,379.679382 381.025635,379.285522 
	C380.158386,379.911072 378.920715,380.436401 377.335815,380.814636 
z"/>
<path fill="#202B42" opacity="1.000000" stroke="none" 
	d="
M372.313232,381.782837 
	C372.836914,381.226318 373.686737,380.837158 374.738647,380.647461 
	C374.173615,381.214691 373.406464,381.582458 372.313232,381.782837 
z"/>
<path fill="#F6F5EA" opacity="1.000000" stroke="none" 
	d="
M386.526428,389.948517 
	C386.233490,389.845215 386.181671,389.680725 386.061951,389.266602 
	C386.496735,388.953705 386.999390,388.890411 387.502014,388.827148 
	C387.257172,389.180542 387.012360,389.533936 386.526428,389.948517 
z"/>
<path fill="#F6F4E8" opacity="1.000000" stroke="none" 
	d="
M293.124573,375.065216 
	C292.154053,375.029480 291.712067,374.884979 291.270050,374.740509 
	C291.266388,374.560913 291.262695,374.381348 291.259033,374.201782 
	C292.237091,374.201782 293.215149,374.201782 294.449402,374.460022 
	C294.354736,374.797668 294.003876,374.877045 293.124573,375.065216 
z"/>
<path fill="#202B42" opacity="1.000000" stroke="none" 
	d="
M408.785553,315.347778 
	C408.736633,315.678955 408.456085,315.951691 408.069885,316.069122 
	C407.957764,315.513947 408.154327,315.305786 408.785553,315.347778 
z"/>
<path fill="#F6F5EA" opacity="1.000000" stroke="none" 
	d="
M388.516602,386.529114 
	C388.479919,386.547516 388.553314,386.510742 388.516602,386.529114 
z"/>
<path fill="#FACE68" opacity="1.000000" stroke="none" 
	d="
M281.678009,323.135529 
	C278.332001,318.602844 274.826874,314.173676 271.760620,309.459015 
	C271.062744,308.385956 271.397552,306.010834 272.165955,304.822906 
	C272.735016,303.943146 274.950775,303.417358 276.135254,303.760742 
	C284.689392,306.240631 293.167603,308.982239 301.985352,311.186676 
	C296.581268,302.702026 288.111084,298.809113 277.426178,296.199188 
	C289.048492,291.603577 299.936829,289.196259 311.631775,290.047058 
	C307.256714,286.514008 302.627472,285.718872 288.455627,285.583374 
	C287.216125,281.268951 286.966003,277.152954 282.941071,274.889832 
	C283.390350,274.558624 283.839630,274.227386 284.774933,273.775726 
	C285.531555,273.516479 285.756714,273.324432 285.936493,273.079071 
	C285.936493,273.079071 286.076691,272.827271 286.676392,272.886200 
	C290.010956,272.364777 292.856506,272.088898 295.458435,271.142883 
	C301.539246,268.932037 307.549377,266.506683 313.490906,263.942841 
	C315.776093,262.956757 317.797241,261.358765 319.938690,260.039581 
	C321.995758,260.028046 324.052826,260.016510 326.557312,260.441254 
	C327.605408,262.347687 327.853699,264.143311 328.863007,265.236023 
	C336.326294,273.315948 337.566437,282.577393 334.608002,292.801941 
	C333.154572,297.825195 333.765411,302.279877 338.669006,305.285309 
	C338.586487,305.691986 338.503967,306.098663 338.003601,307.000397 
	C337.511230,307.926788 337.436707,308.358154 337.362152,308.789490 
	C337.362152,308.789490 337.587128,308.899323 337.166168,308.948853 
	C335.026123,309.405762 331.890076,309.625793 331.807587,310.249695 
	C330.999725,316.357605 326.905426,319.986755 323.129395,324.302917 
	C319.060913,328.953339 315.351807,333.119263 308.803955,333.595337 
	C304.802765,333.886292 302.544647,336.207764 301.955231,340.163513 
	C299.433838,338.607483 296.912415,337.051453 294.204163,334.836975 
	C293.011871,329.369232 286.188446,323.262665 281.678009,323.135529 
z"/>
<path fill="#F6F5EA" opacity="1.000000" stroke="none" 
	d="
M460.500244,309.602234 
	C467.259338,303.515289 473.825073,297.719513 480.390808,291.923706 
	C480.695679,292.203827 481.000549,292.483917 481.305420,292.764008 
	C470.033813,311.573303 455.419952,327.505035 437.925781,340.830444 
	C420.093109,354.413666 400.131348,363.103546 377.433289,366.027222 
	C359.827301,367.329651 342.926147,365.785950 326.305054,358.770508 
	C325.951294,357.946259 326.016205,357.536957 326.081085,357.127625 
	C360.635345,359.127899 393.094177,351.716736 423.011230,334.408875 
	C435.867767,326.971039 447.900116,318.108582 460.500244,309.602234 
z"/>
<path fill="#F0C360" opacity="1.000000" stroke="none" 
	d="
M302.171265,340.442505 
	C302.544647,336.207764 304.802765,333.886292 308.803955,333.595337 
	C315.351807,333.119263 319.060913,328.953339 323.129395,324.302917 
	C326.905426,319.986755 330.999725,316.357605 331.807587,310.249695 
	C331.890076,309.625793 335.026123,309.405762 337.132263,309.069336 
	C334.009796,317.502533 331.293701,326.322479 326.797882,334.115723 
	C320.622101,344.821228 313.490692,346.218018 302.171265,340.442505 
z"/>
<path fill="#F0C360" opacity="1.000000" stroke="none" 
	d="
M338.813782,305.228516 
	C333.765411,302.279877 333.154572,297.825195 334.608002,292.801941 
	C337.566437,282.577393 336.326294,273.315948 328.863007,265.236023 
	C327.853699,264.143311 327.605408,262.347687 326.996490,260.504456 
	C335.617493,259.589142 339.250275,261.513947 340.460510,270.030975 
	C341.631287,278.270233 340.915253,286.777649 340.938324,295.914734 
	C340.860992,297.119720 340.873291,297.577209 340.885620,298.034698 
	C340.663422,298.615204 340.441193,299.195709 340.237549,300.089722 
	C340.256134,300.403229 340.222961,300.519714 340.098999,300.760864 
	C339.967743,301.336060 339.960419,301.670105 339.953125,302.004120 
	C339.700562,302.253510 339.584229,302.555389 339.488342,303.346832 
	C339.326080,304.197693 339.279541,304.611450 339.233002,305.025238 
	C339.233002,305.025238 338.958557,305.171692 338.813782,305.228516 
z"/>
<path fill="#F1C35E" opacity="1.000000" stroke="none" 
	d="
M267.264893,334.533203 
	C256.694550,335.055389 261.172028,344.545471 257.362701,350.790192 
	C255.210129,347.730255 253.385178,345.136078 251.343445,342.288696 
	C253.617859,333.090240 256.079865,324.136536 258.653961,315.215118 
	C258.867310,314.475677 260.231506,313.332306 260.394165,313.434845 
	C261.382477,314.057648 262.679871,314.848877 262.952484,315.837952 
	C264.363464,320.957153 265.495880,326.153137 266.918823,331.660889 
	C267.175629,332.723053 267.239014,333.446655 267.264893,334.533203 
z"/>
<path fill="#F0C360" opacity="1.000000" stroke="none" 
	d="
M281.801208,323.453979 
	C286.188446,323.262665 293.011871,329.369232 294.020813,334.555786 
	C292.269928,333.676392 290.515594,332.419708 288.456879,331.053650 
	C286.076477,328.553680 284.000458,326.163055 281.801208,323.453979 
z"/>
<path fill="#17223A" opacity="1.000000" stroke="none" 
	d="
M276.544128,407.251648 
	C276.515839,400.106201 276.487549,392.960785 276.539612,385.410645 
	C277.078156,385.991943 277.934906,386.979828 277.930206,387.963623 
	C277.897705,394.755096 277.685547,401.545746 277.179749,408.221802 
	C276.733643,407.821869 276.638916,407.536774 276.544128,407.251648 
z"/>
<path fill="#989CA2" opacity="1.000000" stroke="none" 
	d="
M325.756470,356.981018 
	C326.016205,357.536957 325.951294,357.946259 325.956207,358.660156 
	C324.135193,358.334473 322.244385,357.704193 320.353546,357.073914 
	C320.440826,356.801147 320.528076,356.528351 320.615356,356.255585 
	C322.220856,356.448517 323.826385,356.641449 325.756470,356.981018 
z"/>
<path fill="#202B41" opacity="1.000000" stroke="none" 
	d="
M275.498718,372.708527 
	C275.202820,372.207306 275.068909,371.477997 274.992340,370.379517 
	C275.253357,370.833710 275.457031,371.657074 275.498718,372.708527 
z"/>
<path fill="#202B41" opacity="1.000000" stroke="none" 
	d="
M268.846710,338.269623 
	C268.470428,337.715515 268.140411,336.762451 267.849365,335.425598 
	C268.223206,335.984772 268.558075,336.927734 268.846710,338.269623 
z"/>
<path fill="#17223A" opacity="1.000000" stroke="none" 
	d="
M276.517578,382.961853 
	C276.275146,382.832428 276.219543,382.668610 276.230316,382.253906 
	C276.432587,382.311157 276.568512,382.619293 276.517578,382.961853 
z"/>
<path fill="#202B41" opacity="1.000000" stroke="none" 
	d="
M269.790985,342.335846 
	C269.474396,342.048523 269.197754,341.390259 268.950684,340.366455 
	C269.263824,340.655548 269.547363,341.310242 269.790985,342.335846 
z"/>
<path fill="#202B41" opacity="1.000000" stroke="none" 
	d="
M271.851257,351.272461 
	C271.558319,350.993683 271.287018,350.359711 271.051025,349.374939 
	C271.348572,349.655151 271.610718,350.286224 271.851257,351.272461 
z"/>
<path fill="#202B41" opacity="1.000000" stroke="none" 
	d="
M272.805206,355.331543 
	C272.503052,355.042267 272.239471,354.388275 272.013489,353.373657 
	C272.315308,353.664276 272.579559,354.315552 272.805206,355.331543 
z"/>
<path fill="#202B41" opacity="1.000000" stroke="none" 
	d="
M273.778564,360.345825 
	C273.474976,360.052124 273.219391,359.393219 273.006775,358.372253 
	C273.308655,358.667023 273.567657,359.323822 273.778564,360.345825 
z"/>
<path fill="#F0C360" opacity="1.000000" stroke="none" 
	d="
M337.606628,308.553925 
	C337.436707,308.358154 337.511230,307.926788 337.804535,307.245361 
	C337.965912,307.436310 337.908508,307.877319 337.606628,308.553925 
z"/>
<path fill="#202B41" opacity="1.000000" stroke="none" 
	d="
M339.406372,304.776855 
	C339.279541,304.611450 339.326080,304.197693 339.606903,303.565613 
	C339.754089,303.740997 339.666931,304.134705 339.406372,304.776855 
z"/>
<path fill="#202B41" opacity="1.000000" stroke="none" 
	d="
M340.138855,301.814911 
	C339.960419,301.670105 339.967743,301.336060 340.139740,300.805664 
	C340.311157,300.948120 340.317871,301.286896 340.138855,301.814911 
z"/>
<path fill="#202B41" opacity="1.000000" stroke="none" 
	d="
M270.722534,346.434937 
	C270.508820,346.394714 270.284424,346.037201 270.084839,345.353149 
	C270.310364,345.390320 270.511078,345.753998 270.722534,346.434937 
z"/>
<path fill="#202B41" opacity="1.000000" stroke="none" 
	d="
M276.262482,378.871155 
	C276.081818,378.825439 276.013367,378.668274 275.991455,378.258179 
	C276.379059,378.170044 276.491272,378.421509 276.262482,378.871155 
z"/>
<path fill="#202B41" opacity="1.000000" stroke="none" 
	d="
M274.323242,364.857300 
	C274.145721,364.817993 274.071503,364.665039 274.038666,364.260559 
	C274.407837,364.167633 274.523315,364.412537 274.323242,364.857300 
z"/>
<path fill="#202B41" opacity="1.000000" stroke="none" 
	d="
M276.197601,411.899048 
	C276.034882,411.827026 275.999329,411.661377 276.047272,411.255798 
	C276.441864,411.231598 276.506531,411.494781 276.197601,411.899048 
z"/>
<path fill="#202B41" opacity="1.000000" stroke="none" 
	d="
M276.356140,407.505463 
	C276.638916,407.536774 276.733643,407.821869 276.924133,408.547302 
	C277.019867,408.987579 276.620911,409.002991 276.421265,409.002075 
	C276.203827,408.587219 276.186005,408.173248 276.356140,407.505463 
z"/>
<path fill="#FAD06B" opacity="1.000000" stroke="none" 
	d="
M249.615646,274.917542 
	C257.164062,277.392609 264.403839,280.041168 271.997070,282.815125 
	C272.322021,284.359222 272.293518,285.777924 271.828613,287.473633 
	C269.414764,289.589203 267.071075,291.164612 265.526886,293.314362 
	C260.386719,300.470215 253.931976,301.296814 247.188187,295.625214 
	C246.015732,294.639191 243.970840,294.690491 242.328903,294.262665 
	C242.371384,287.040955 244.261765,280.491852 249.615646,274.917542 
z"/>
<path fill="#EFC057" opacity="1.000000" stroke="none" 
	d="
M222.344879,341.076904 
	C223.300293,336.424530 224.210510,331.697144 225.991943,327.324646 
	C227.552490,323.494324 226.946503,321.039825 223.035614,319.025146 
	C226.300598,316.007263 229.897369,313.163055 234.044098,309.984344 
	C236.040100,308.632355 237.486160,307.614899 238.932220,306.597412 
	C242.557007,306.530914 240.393448,308.615204 240.040680,309.816925 
	C236.468933,321.984711 232.835037,334.134216 229.055084,346.652527 
	C226.820496,345.062836 224.749405,343.109467 222.344879,341.076904 
z"/>
<path fill="#F2F0E7" opacity="1.000000" stroke="none" 
	d="
M225.117050,390.010254 
	C225.541565,385.942993 225.908569,382.310181 226.290924,378.525513 
	C230.522629,387.442352 235.178268,396.081238 238.643982,405.173676 
	C239.901978,408.474091 238.317978,412.857758 237.924652,418.182678 
	C230.689804,409.249481 221.220474,403.023834 225.117050,390.010254 
z"/>
<path fill="#EBBE5E" opacity="1.000000" stroke="none" 
	d="
M242.250275,294.595306 
	C243.970840,294.690491 246.015732,294.639191 247.188187,295.625214 
	C253.931976,301.296814 260.386719,300.470215 265.526886,293.314362 
	C267.071075,291.164612 269.414764,289.589203 271.678894,287.873169 
	C270.335876,292.467896 269.171692,297.187042 266.962585,301.351929 
	C263.969543,306.994812 259.126129,308.639404 253.011246,307.122528 
	C246.488510,305.504486 242.561584,301.086670 242.250275,294.595306 
z"/>
<path fill="#EBBE5E" opacity="1.000000" stroke="none" 
	d="
M220.570694,284.260681 
	C216.455627,281.525269 219.479904,277.960663 219.003052,274.403015 
	C224.846283,276.341888 230.690063,278.695312 236.533844,281.048767 
	C236.400879,281.583801 236.267929,282.118866 236.134979,282.653900 
	C231.089340,283.182556 226.043701,283.711182 220.570694,284.260681 
z"/>
<path fill="#EBBE5E" opacity="1.000000" stroke="none" 
	d="
M282.591156,274.959656 
	C286.966003,277.152954 287.216125,281.268951 287.992249,285.528137 
	C284.669067,286.681854 281.324646,287.444611 277.713623,288.268188 
	C277.300690,282.855164 275.631989,277.536774 282.591156,274.959656 
z"/>
<path fill="#ECDCA6" opacity="1.000000" stroke="none" 
	d="
M319.530609,259.991150 
	C317.797241,261.358765 315.776093,262.956757 313.490906,263.942841 
	C307.549377,266.506683 301.539246,268.932037 295.458435,271.142883 
	C292.856506,272.088898 290.010956,272.364777 286.818298,272.911194 
	C296.265076,265.992004 307.162262,261.620972 319.530609,259.991150 
z"/>
<path fill="#262F43" opacity="1.000000" stroke="none" 
	d="
M238.712494,306.349243 
	C237.486160,307.614899 236.040100,308.632355 234.275787,309.735443 
	C233.975922,308.475555 233.994308,307.130096 234.012695,305.784607 
	C235.506058,305.890076 236.999420,305.995544 238.712494,306.349243 
z"/>
<path fill="#262F43" opacity="1.000000" stroke="none" 
	d="
M213.975769,312.714081 
	C214.657684,311.964874 215.532593,311.515076 216.704865,311.050537 
	C216.057724,311.695068 215.113235,312.354279 213.975769,312.714081 
z"/>
<path fill="#1A253B" opacity="1.000000" stroke="none" 
	d="
M341.090027,297.884277 
	C340.873291,297.577209 340.860992,297.119720 340.972900,296.339600 
	C341.162933,296.589294 341.228699,297.161591 341.090027,297.884277 
z"/>
<path fill="#ECDCA6" opacity="1.000000" stroke="none" 
	d="
M285.701813,273.111694 
	C285.756714,273.324432 285.531555,273.516479 285.056580,273.737915 
	C284.944580,273.492767 285.149567,273.267334 285.701813,273.111694 
z"/>
<path fill="#F1E2B7" opacity="1.000000" stroke="none" 
	d="
M241.188019,258.996826 
	C241.410583,258.925873 241.752411,259.124115 242.181427,259.614563 
	C241.948166,259.693207 241.627731,259.479614 241.188019,258.996826 
z"/>
<path fill="#F7D16D" opacity="1.000000" stroke="none" 
	d="
M619.514404,521.520569 
	C619.486328,521.533813 619.542419,521.507324 619.514404,521.520569 
z"/>
</svg>